<?xml version="1.0" encoding="UTF-8"?>
<svg version="1.1" xmlns="http://www.w3.org/2000/svg" width="16" height="16">
<path d="M0 0 C5.28 0 10.56 0 16 0 C16 5.28 16 10.56 16 16 C10.72 16 5.44 16 0 16 C0 10.72 0 5.44 0 0 Z " fill="#241A15" transform="translate(0,0)"/>
<path d="M0 0 C5.28 0 10.56 0 16 0 C16 0.66 16 1.32 16 2 C15.01 2.33 14.02 2.66 13 3 C12.34 3.66 11.68 4.32 11 5 C10.34 4.34 9.68 3.68 9 3 C6.89179203 3.3185177 6.89179203 3.3185177 5 4 C4.67 5.32 4.34 6.64 4 8 C4.99 8.33 5.98 8.66 7 9 C7 11.31 7 13.62 7 16 C4.69 16 2.38 16 0 16 C0 10.72 0 5.44 0 0 Z " fill="#A63922" transform="translate(0,0)"/>
<path d="M0 0 C0.99 0.33 1.98 0.66 3 1 C3 2.32 3 3.64 3 5 C1.35 5.33 -0.3 5.66 -2 6 C-1.125 1.125 -1.125 1.125 0 0 Z " fill="#3E2018" transform="translate(6,2)"/>
</svg>
